%TF.GenerationSoftware,Altium Limited,Altium Designer,19.1.5 (86)*%
G04 Layer_Physical_Order=2*
G04 Layer_Color=16711680*
%FSLAX43Y43*%
%MOMM*%
%TF.FileFunction,Copper,L2,Bot,Signal*%
%TF.Part,Single*%
G01*
G75*
%TA.AperFunction,SMDPad,CuDef*%
%ADD10P,2.828X4X360.0*%
%ADD11P,2.828X4X270.0*%
%ADD12R,1.250X3.000*%
%ADD13R,1.200X1.400*%
%ADD14R,1.800X2.200*%
%ADD15R,2.200X2.200*%
%ADD16R,1.400X1.200*%
%ADD17R,0.650X1.200*%
%TA.AperFunction,Conductor*%
%ADD18C,0.500*%
%TA.AperFunction,WasherPad*%
%ADD19C,3.000*%
D10*
X-11693Y-9897D02*
D03*
X-9897Y-11693D02*
D03*
D11*
X9897D02*
D03*
X11693Y-9897D02*
D03*
D12*
X-6985Y-4790D02*
D03*
X-4445D02*
D03*
X-6985Y-12990D02*
D03*
X-4445D02*
D03*
D13*
X-6350Y1270D02*
D03*
X-4318D02*
D03*
X-2540Y-5080D02*
D03*
X-508D02*
D03*
X9398Y-1270D02*
D03*
X11430D02*
D03*
X-10968Y-2000D02*
D03*
X-13000D02*
D03*
D14*
X-6864Y3512D02*
D03*
X-1784D02*
D03*
X-4324D02*
D03*
X3296D02*
D03*
X8376D02*
D03*
X5836D02*
D03*
X-9404D02*
D03*
D15*
X3810Y-5080D02*
D03*
X6350Y-5080D02*
D03*
X8890Y-5080D02*
D03*
X11430Y-5080D02*
D03*
D16*
X13970D02*
D03*
Y-7112D02*
D03*
X-13000Y-32D02*
D03*
Y2000D02*
D03*
D17*
X-11050Y-3673D02*
D03*
X-12950D02*
D03*
X-12000Y-6327D02*
D03*
D18*
X-2540Y-1905D02*
X-508Y-3937D01*
X-4445Y-1905D02*
X-2540D01*
X-6350Y0D02*
X-4445Y-1905D01*
X6350Y-6985D02*
Y-5080D01*
X3810Y-9525D02*
X6350Y-6985D01*
X-5715Y-9525D02*
X3810D01*
X8890Y-5080D02*
Y0D01*
X-4445Y-12065D02*
X5715D01*
X7992Y-9788D01*
X0Y0D02*
Y5080D01*
X-1920Y7000D02*
X0Y5080D01*
X-11000Y7000D02*
X-1920D01*
X-4324Y1270D02*
Y3512D01*
X-11050Y-3673D02*
Y4950D01*
X-4324Y3512D02*
Y4959D01*
X-5080Y5715D02*
X-4324Y4959D01*
X-10285Y5715D02*
X-5080D01*
X-11050Y4950D02*
X-10285Y5715D01*
X-6985Y-8781D02*
Y-4790D01*
X-9897Y-11693D02*
X-6985Y-8781D01*
Y-10795D02*
X-5715Y-9525D01*
X-6985Y-12990D02*
Y-10795D01*
X-11693Y-9897D02*
X-11430Y-10160D01*
X-12000Y-9590D02*
X-11693Y-9897D01*
X7992Y-9788D02*
X8890Y-8890D01*
X7992Y-9788D02*
X9897Y-11693D01*
X8890Y-8890D02*
Y-5080D01*
X11430Y-10160D02*
Y-9652D01*
X13970Y-7112D01*
X-6350Y1270D02*
Y3175D01*
Y0D02*
Y1270D01*
X-508Y-5080D02*
Y-3937D01*
Y-5080D02*
X3810D01*
X-4790D02*
X-2540D01*
X9416Y-11956D02*
X9634D01*
X6350Y2540D02*
X8890Y0D01*
X8376Y3512D02*
X11430Y458D01*
Y-1270D02*
Y458D01*
Y-5080D02*
Y-1270D01*
Y-5080D02*
X13970D01*
X-13000Y-64D02*
X-12968Y-32D01*
X-12950Y-3673D02*
Y-114D01*
X-13000Y-64D02*
X-12950Y-114D01*
X-12000Y-9590D02*
Y-6327D01*
X-13000Y5000D02*
X-11000Y7000D01*
X-13000Y2000D02*
Y5000D01*
D19*
X0Y0D02*
D03*
X-17375D02*
D03*
X17375D02*
D03*
%TF.MD5,8ff45a70c31aaf0ca52a345523cf0da0*%
M02*
